<svg width="32" height="32" viewBox="0 0 32 32" fill="none" xmlns="http://www.w3.org/2000/svg">
  <!-- Heart outline -->
  <path d="M16 28C16 28 2 18 2 10C2 6.5 4.5 4 8 4C10.5 4 12.5 5.5 16 8C19.5 5.5 21.5 4 24 4C27.5 4 30 6.5 30 10C30 18 16 28 16 28Z" stroke="#8B4513" stroke-width="2" fill="none"/>
  
  <!-- Person head (circle) -->
  <circle cx="16" cy="8" r="3" fill="#FF8C00"/>
  
  <!-- Bowl -->
  <ellipse cx="16" cy="22" rx="6" ry="2" fill="#8B4513"/>
  <rect x="10" y="20" width="12" height="2" fill="#8B4513"/>
  
  <!-- Carrot -->
  <ellipse cx="13" cy="20" rx="1.5" ry="3" fill="#FF8C00"/>
  <path d="M13 17L12 15L14 15Z" fill="#228B22"/>
  <line x1="13" y1="18" x2="13" y2="19" stroke="#8B4513" stroke-width="0.5"/>
  
  <!-- Leafy vegetables -->
  <path d="M19 18C19 18 20 17 21 18C22 19 21 20 20 21C19 22 18 21 18 20C18 19 19 18 19 18Z" fill="#228B22"/>
  <path d="M18 19C18 19 19 18 20 19C21 20 20 21 19 22C18 23 17 22 17 21C17 20 18 19 18 19Z" fill="#32CD32"/>
  <line x1="19" y1="19" x2="19" y2="20" stroke="#228B22" stroke-width="0.5"/>
</svg>
